<svg width="51" height="48" viewBox="0 0 51 48" fill="none" xmlns="http://www.w3.org/2000/svg">
<g clip-path="url(#clip0_32_112)">
<path d="M49.4804 26.9999H27.2345L42.0498 41.8152C42.616 42.3814 43.5479 42.4274 44.1301 41.8789C47.7582 38.4608 50.2538 33.853 50.986 28.6733C51.1116 27.7864 50.3757 26.9999 49.4804 26.9999ZM47.9963 20.9249C47.2238 9.72551 38.2745 0.776134 27.0751 0.00363415C26.2201 -0.0554283 25.5001 0.665509 25.5001 1.52238V22.4999H46.4785C47.3354 22.4999 48.0554 21.7799 47.9963 20.9249ZM21.0001 26.9999V4.75395C21.0001 3.85863 20.2135 3.1227 19.3276 3.24832C8.1554 4.82707 -0.384292 14.5874 0.0132078 26.2846C0.421958 38.2977 10.7654 48.1489 22.7841 47.998C27.5091 47.9389 31.8751 46.4164 35.4648 43.8702C36.2054 43.3452 36.2541 42.2549 35.612 41.6127L21.0001 26.9999Z" fill="#438BFB"/>
</g>
<defs>
<clipPath id="clip0_32_112">
<rect width="51" height="48" fill="white"/>
</clipPath>
</defs>
</svg>
