<svg width="38" height="39" viewBox="0 0 38 39" fill="none" xmlns="http://www.w3.org/2000/svg">
<rect x="8" y="7" width="23" height="28" fill="white"/>
<rect x="5" y="7" width="23" height="24" fill="white"/>
<g clip-path="url(#clip0_53_5)">
<path d="M19 0.609375C8.50403 0.609375 0 9.06445 0 19.5C0 29.9355 8.50403 38.3906 19 38.3906C29.496 38.3906 38 29.9355 38 19.5C38 9.06445 29.496 0.609375 19 0.609375ZM19 7.92188C22.7234 7.92188 25.7419 10.923 25.7419 14.625C25.7419 18.327 22.7234 21.3281 19 21.3281C15.2766 21.3281 12.2581 18.327 12.2581 14.625C12.2581 10.923 15.2766 7.92188 19 7.92188ZM19 34.125C14.5028 34.125 10.473 32.0988 7.77621 28.9301C9.21653 26.2336 12.0359 24.375 15.3226 24.375C15.5065 24.375 15.6903 24.4055 15.8665 24.4588C16.8625 24.7787 17.9044 24.9844 19 24.9844C20.0956 24.9844 21.1452 24.7787 22.1335 24.4588C22.3097 24.4055 22.4935 24.375 22.6774 24.375C25.9641 24.375 28.7835 26.2336 30.2238 28.9301C27.527 32.0988 23.4972 34.125 19 34.125Z" fill="#C3C6D1"/>
</g>
<defs>
<clipPath id="clip0_53_5">
<rect width="38" height="39" fill="white"/>
</clipPath>
</defs>
</svg>
